<svg xmlns="http://www.w3.org/2000/svg" width="1000" height="420" viewBox="0 0 1000 420" font-family="monospace">
<rect width="1000" height="420" fill="#0d0d0d"/>
<text x="70" y="20" fill="#e0e0e0" font-size="15">QR leaderboard: geomean speedup vs torch.geqrf</text>
<line x1="70" y1="360.0" x2="970" y2="360.0" stroke="#262626" stroke-width="1"/>
<text x="62" y="364.0" fill="#e0e0e0" font-size="12" text-anchor="end">0.00x</text>
<line x1="70" y1="294.0" x2="970" y2="294.0" stroke="#262626" stroke-width="1"/>
<text x="62" y="298.0" fill="#e0e0e0" font-size="12" text-anchor="end">2.55x</text>
<line x1="70" y1="228.0" x2="970" y2="228.0" stroke="#262626" stroke-width="1"/>
<text x="62" y="232.0" fill="#e0e0e0" font-size="12" text-anchor="end">5.11x</text>
<line x1="70" y1="162.0" x2="970" y2="162.0" stroke="#262626" stroke-width="1"/>
<text x="62" y="166.0" fill="#e0e0e0" font-size="12" text-anchor="end">7.66x</text>
<line x1="70" y1="96.0" x2="970" y2="96.0" stroke="#262626" stroke-width="1"/>
<text x="62" y="100.0" fill="#e0e0e0" font-size="12" text-anchor="end">10.21x</text>
<line x1="70" y1="30.0" x2="970" y2="30.0" stroke="#262626" stroke-width="1"/>
<text x="62" y="34.0" fill="#e0e0e0" font-size="12" text-anchor="end">12.76x</text>
<line x1="70" y1="334.1" x2="970" y2="334.1" stroke="#666666" stroke-width="1.5" stroke-dasharray="6 5"/>
<text x="970" y="328.1" fill="#666666" font-size="11" text-anchor="end">geqrf baseline (1.0x)</text>
<polyline points="70.0,334.1 220.0,348.4 370.0,326.7 520.0,298.5 670.0,275.5 820.0,115.2 970.0,73.0" fill="none" stroke="#f59e0b" stroke-width="2"/>
<circle cx="70.0" cy="334.1" r="5" fill="#34d399"/>
<text x="70.0" y="322.1" fill="#34d399" font-size="11" text-anchor="middle">1.00x</text>
<text x="70.0" y="378.0" fill="#e0e0e0" font-size="11" text-anchor="middle">geqrf</text>
<circle cx="220.0" cy="348.4" r="5" fill="#34d399"/>
<text x="220.0" y="336.4" fill="#34d399" font-size="11" text-anchor="middle">0.45x</text>
<text x="220.0" y="378.0" fill="#e0e0e0" font-size="11" text-anchor="middle">blocked_wy</text>
<circle cx="370.0" cy="326.7" r="5" fill="#34d399"/>
<text x="370.0" y="314.7" fill="#34d399" font-size="11" text-anchor="middle">1.29x</text>
<text x="370.0" y="378.0" fill="#e0e0e0" font-size="11" text-anchor="middle">v1</text>
<circle cx="520.0" cy="298.5" r="5" fill="#34d399"/>
<text x="520.0" y="286.5" fill="#34d399" font-size="11" text-anchor="middle">2.38x</text>
<text x="520.0" y="378.0" fill="#e0e0e0" font-size="11" text-anchor="middle">v9</text>
<circle cx="670.0" cy="275.5" r="5" fill="#34d399"/>
<text x="670.0" y="263.5" fill="#34d399" font-size="11" text-anchor="middle">3.27x</text>
<text x="670.0" y="378.0" fill="#e0e0e0" font-size="11" text-anchor="middle">v15</text>
<circle cx="820.0" cy="115.2" r="5" fill="#34d399"/>
<text x="820.0" y="103.2" fill="#34d399" font-size="11" text-anchor="middle">9.47x</text>
<text x="820.0" y="378.0" fill="#e0e0e0" font-size="11" text-anchor="middle">v17</text>
<circle cx="970.0" cy="73.0" r="5" fill="#34d399"/>
<text x="970.0" y="61.0" fill="#34d399" font-size="11" text-anchor="middle">11.10x</text>
<text x="970.0" y="378.0" fill="#e0e0e0" font-size="11" text-anchor="middle">v19</text>
</svg>